<mxfile host="app.diagrams.net" modified="2023-01-08T12:48:14.244Z" agent="5.0 (Macintosh; Intel Mac OS X 10_15_7) AppleWebKit/537.36 (KHTML, like Gecko) Chrome/108.0.0.0 Safari/537.36" etag="qAEjhTxtJiVUIVTQwqvs" version="20.7.4" type="github">
  <diagram id="I9DXT-ueyr1dZtZgeZVM" name="Page-1">
    <mxGraphModel dx="1194" dy="621" grid="1" gridSize="10" guides="1" tooltips="1" connect="1" arrows="1" fold="1" page="1" pageScale="1" pageWidth="827" pageHeight="1169" math="0" shadow="0">
      <root>
        <mxCell id="0" />
        <mxCell id="1" parent="0" />
        <mxCell id="y6wobBPAsLzuYyVfoSZy-5" value="分析仪" style="shape=umlLifeline;perimeter=lifelinePerimeter;whiteSpace=wrap;html=1;container=1;collapsible=0;recursiveResize=0;outlineConnect=0;" parent="1" vertex="1">
          <mxGeometry x="190" y="190" width="100" height="860" as="geometry" />
        </mxCell>
        <mxCell id="y6wobBPAsLzuYyVfoSZy-21" value="发送串口指令 40001=1" style="html=1;verticalAlign=bottom;startArrow=oval;startFill=1;endArrow=block;startSize=8;rounded=0;" parent="y6wobBPAsLzuYyVfoSZy-5" target="y6wobBPAsLzuYyVfoSZy-6" edge="1">
          <mxGeometry width="60" relative="1" as="geometry">
            <mxPoint x="50" y="180" as="sourcePoint" />
            <mxPoint x="110" y="180" as="targetPoint" />
          </mxGeometry>
        </mxCell>
        <mxCell id="_r-T3VkqyiKVVPjlkhmP-1" value="发送指令40004=1&lt;br&gt;滴加试剂&lt;br&gt;发送指令40004=2" style="html=1;points=[];perimeter=orthogonalPerimeter;" vertex="1" parent="y6wobBPAsLzuYyVfoSZy-5">
          <mxGeometry x="45" y="340" width="10" height="80" as="geometry" />
        </mxCell>
        <mxCell id="_r-T3VkqyiKVVPjlkhmP-3" value="" style="edgeStyle=elbowEdgeStyle;fontSize=12;html=1;endArrow=blockThin;endFill=1;rounded=0;" edge="1" parent="y6wobBPAsLzuYyVfoSZy-5">
          <mxGeometry width="160" relative="1" as="geometry">
            <mxPoint x="50" y="220" as="sourcePoint" />
            <mxPoint x="210" y="220" as="targetPoint" />
          </mxGeometry>
        </mxCell>
        <mxCell id="_r-T3VkqyiKVVPjlkhmP-4" value="" style="edgeStyle=elbowEdgeStyle;fontSize=12;html=1;endArrow=blockThin;endFill=1;rounded=0;" edge="1" parent="y6wobBPAsLzuYyVfoSZy-5">
          <mxGeometry width="160" relative="1" as="geometry">
            <mxPoint x="50" y="424" as="sourcePoint" />
            <mxPoint x="210" y="424" as="targetPoint" />
          </mxGeometry>
        </mxCell>
        <mxCell id="y6wobBPAsLzuYyVfoSZy-6" value="AI决策机" style="shape=umlLifeline;perimeter=lifelinePerimeter;whiteSpace=wrap;html=1;container=1;collapsible=0;recursiveResize=0;outlineConnect=0;lifelineDashed=0;" parent="1" vertex="1">
          <mxGeometry x="360" y="190" width="100" height="860" as="geometry" />
        </mxCell>
        <mxCell id="y6wobBPAsLzuYyVfoSZy-17" value="自启动" style="html=1;points=[];perimeter=orthogonalPerimeter;" parent="y6wobBPAsLzuYyVfoSZy-6" vertex="1">
          <mxGeometry x="45" y="60" width="10" height="40" as="geometry" />
        </mxCell>
        <mxCell id="y6wobBPAsLzuYyVfoSZy-18" value="等待40001为1" style="html=1;points=[];perimeter=orthogonalPerimeter;" parent="y6wobBPAsLzuYyVfoSZy-6" vertex="1">
          <mxGeometry x="45" y="120" width="10" height="40" as="geometry" />
        </mxCell>
        <mxCell id="y6wobBPAsLzuYyVfoSZy-22" value="循环等待40004为2" style="html=1;points=[];perimeter=orthogonalPerimeter;" parent="y6wobBPAsLzuYyVfoSZy-6" vertex="1">
          <mxGeometry x="45" y="190" width="10" height="30" as="geometry" />
        </mxCell>
        <mxCell id="y6wobBPAsLzuYyVfoSZy-23" value="拍照判断突变" style="html=1;points=[];perimeter=orthogonalPerimeter;" parent="y6wobBPAsLzuYyVfoSZy-6" vertex="1">
          <mxGeometry x="45" y="240" width="10" height="40" as="geometry" />
        </mxCell>
        <mxCell id="y6wobBPAsLzuYyVfoSZy-35" value="结束滴定" style="html=1;verticalAlign=bottom;startArrow=oval;startFill=1;endArrow=block;startSize=8;rounded=0;" parent="y6wobBPAsLzuYyVfoSZy-6" edge="1">
          <mxGeometry width="60" relative="1" as="geometry">
            <mxPoint x="-120.5" y="650" as="sourcePoint" />
            <mxPoint x="-281" y="650" as="targetPoint" />
          </mxGeometry>
        </mxCell>
        <mxCell id="y6wobBPAsLzuYyVfoSZy-36" value="放置待滴定样品" style="html=1;verticalAlign=bottom;startArrow=oval;startFill=1;endArrow=block;startSize=8;rounded=0;" parent="y6wobBPAsLzuYyVfoSZy-6" edge="1">
          <mxGeometry x="0.0031" width="60" relative="1" as="geometry">
            <mxPoint x="-280.5" y="710" as="sourcePoint" />
            <mxPoint x="-121" y="710" as="targetPoint" />
            <mxPoint as="offset" />
          </mxGeometry>
        </mxCell>
        <mxCell id="y6wobBPAsLzuYyVfoSZy-37" value="开始滴定，预滴5ml" style="html=1;verticalAlign=bottom;startArrow=oval;startFill=1;endArrow=block;startSize=8;rounded=0;" parent="y6wobBPAsLzuYyVfoSZy-6" edge="1">
          <mxGeometry width="60" relative="1" as="geometry">
            <mxPoint x="-280.5" y="750" as="sourcePoint" />
            <mxPoint x="-121" y="750" as="targetPoint" />
          </mxGeometry>
        </mxCell>
        <mxCell id="y6wobBPAsLzuYyVfoSZy-32" value="结束本轮AI流程" style="html=1;points=[];perimeter=orthogonalPerimeter;" parent="y6wobBPAsLzuYyVfoSZy-6" vertex="1">
          <mxGeometry x="43.5" y="560" width="10" height="40" as="geometry" />
        </mxCell>
        <mxCell id="y6wobBPAsLzuYyVfoSZy-29" value="循环等待40004为2" style="html=1;points=[];perimeter=orthogonalPerimeter;" parent="y6wobBPAsLzuYyVfoSZy-6" vertex="1">
          <mxGeometry x="42.5" y="420" width="10" height="30" as="geometry" />
        </mxCell>
        <mxCell id="y6wobBPAsLzuYyVfoSZy-30" value="拍照判断突变" style="html=1;points=[];perimeter=orthogonalPerimeter;" parent="y6wobBPAsLzuYyVfoSZy-6" vertex="1">
          <mxGeometry x="42.5" y="470" width="10" height="40" as="geometry" />
        </mxCell>
        <mxCell id="y6wobBPAsLzuYyVfoSZy-31" value="突变-发送串口指令40002=2" style="html=1;verticalAlign=bottom;startArrow=oval;startFill=1;endArrow=block;startSize=8;rounded=0;entryX=0.5;entryY=0.83;entryDx=0;entryDy=0;entryPerimeter=0;" parent="y6wobBPAsLzuYyVfoSZy-6" edge="1">
          <mxGeometry width="60" relative="1" as="geometry">
            <mxPoint x="47" y="549.9000000000001" as="sourcePoint" />
            <mxPoint x="-122.5" y="549.9000000000001" as="targetPoint" />
          </mxGeometry>
        </mxCell>
        <mxCell id="y6wobBPAsLzuYyVfoSZy-33" value="等待40001为1" style="html=1;points=[];perimeter=orthogonalPerimeter;" parent="y6wobBPAsLzuYyVfoSZy-6" vertex="1">
          <mxGeometry x="43.5" y="621" width="10" height="40" as="geometry" />
        </mxCell>
        <mxCell id="y6wobBPAsLzuYyVfoSZy-34" value="发送串口指令 40001=2" style="html=1;verticalAlign=bottom;startArrow=oval;startFill=1;endArrow=block;startSize=8;rounded=0;" parent="y6wobBPAsLzuYyVfoSZy-6" edge="1">
          <mxGeometry width="60" relative="1" as="geometry">
            <mxPoint x="-117" y="610" as="sourcePoint" />
            <mxPoint x="52.5" y="610" as="targetPoint" />
          </mxGeometry>
        </mxCell>
        <mxCell id="y6wobBPAsLzuYyVfoSZy-38" value="发送串口指令 40001=1" style="html=1;verticalAlign=bottom;startArrow=oval;startFill=1;endArrow=block;startSize=8;rounded=0;" parent="y6wobBPAsLzuYyVfoSZy-6" edge="1">
          <mxGeometry width="60" relative="1" as="geometry">
            <mxPoint x="-120.5" y="770" as="sourcePoint" />
            <mxPoint x="49" y="770" as="targetPoint" />
          </mxGeometry>
        </mxCell>
        <mxCell id="y6wobBPAsLzuYyVfoSZy-7" value="" style="shape=umlLifeline;participant=umlActor;perimeter=lifelinePerimeter;whiteSpace=wrap;html=1;container=1;collapsible=0;recursiveResize=0;verticalAlign=top;spacingTop=36;outlineConnect=0;" parent="1" vertex="1">
          <mxGeometry x="70" y="200" width="20" height="850" as="geometry" />
        </mxCell>
        <mxCell id="y6wobBPAsLzuYyVfoSZy-8" value="启动分析仪" style="html=1;verticalAlign=bottom;endArrow=block;rounded=0;" parent="y6wobBPAsLzuYyVfoSZy-7" target="y6wobBPAsLzuYyVfoSZy-5" edge="1">
          <mxGeometry width="80" relative="1" as="geometry">
            <mxPoint x="10" y="70" as="sourcePoint" />
            <mxPoint x="90" y="70" as="targetPoint" />
          </mxGeometry>
        </mxCell>
        <mxCell id="y6wobBPAsLzuYyVfoSZy-9" value="放置待滴定样品" style="html=1;verticalAlign=bottom;startArrow=oval;startFill=1;endArrow=block;startSize=8;rounded=0;" parent="y6wobBPAsLzuYyVfoSZy-7" target="y6wobBPAsLzuYyVfoSZy-5" edge="1">
          <mxGeometry x="0.0031" width="60" relative="1" as="geometry">
            <mxPoint x="10" y="110" as="sourcePoint" />
            <mxPoint x="70" y="110" as="targetPoint" />
            <mxPoint as="offset" />
          </mxGeometry>
        </mxCell>
        <mxCell id="y6wobBPAsLzuYyVfoSZy-10" value="开始滴定，预滴5ml" style="html=1;verticalAlign=bottom;startArrow=oval;startFill=1;endArrow=block;startSize=8;rounded=0;" parent="y6wobBPAsLzuYyVfoSZy-7" target="y6wobBPAsLzuYyVfoSZy-5" edge="1">
          <mxGeometry width="60" relative="1" as="geometry">
            <mxPoint x="10" y="150" as="sourcePoint" />
            <mxPoint x="70" y="150" as="targetPoint" />
          </mxGeometry>
        </mxCell>
        <mxCell id="y6wobBPAsLzuYyVfoSZy-24" value="未突变-发送串口指令40002=1&lt;br&gt;并且发送40003=剂量" style="html=1;verticalAlign=bottom;startArrow=oval;startFill=1;endArrow=block;startSize=8;rounded=0;entryX=0.5;entryY=0.83;entryDx=0;entryDy=0;entryPerimeter=0;" parent="1" edge="1">
          <mxGeometry width="60" relative="1" as="geometry">
            <mxPoint x="409.5" y="509.9000000000001" as="sourcePoint" />
            <mxPoint x="240" y="509.9000000000001" as="targetPoint" />
          </mxGeometry>
        </mxCell>
      </root>
    </mxGraphModel>
  </diagram>
</mxfile>
